<svg width="32745" height="6000" viewBox="0 0 32745 6000" fill="none" xmlns="http://www.w3.org/2000/svg">
<path d="M3574.34 1029.61H655.459C528.551 1029.61 425.562 1168.79 425.562 1295.76C425.62 1356.63 449.865 1414.99 492.971 1458.01C536.076 1501.04 594.518 1525.22 655.459 1525.24H3140.37C3521.31 1525.24 3830.06 1797.09 3830.06 2177.42C3830.06 2267.88 3812.22 2357.45 3777.56 2441.02C3742.89 2524.59 3692.09 2600.52 3628.04 2664.47C3564 2728.43 3487.97 2779.15 3404.29 2813.76C3320.61 2848.36 3230.93 2866.16 3140.37 2866.14H109.719C90.3192 2866.14 71.7143 2858.44 57.9968 2844.74C44.2793 2831.04 36.5729 2812.46 36.5729 2793.08V2626C36.6698 2567.93 59.8318 2512.28 100.974 2471.26C142.116 2430.23 197.875 2407.19 256.01 2407.19H3174.53C3235.5 2407.19 3293.97 2383 3337.09 2339.94C3380.2 2296.87 3404.42 2238.47 3404.42 2177.57C3404.42 2116.67 3380.2 2058.27 3337.09 2015.2C3293.97 1972.14 3235.5 1947.95 3174.53 1947.95H689.692C308.821 1947.88 0 1676.1 0 1295.76C0 915.425 308.821 570.374 689.692 570.374H3720.41C3739.81 570.374 3758.42 578.071 3772.14 591.772C3785.85 605.473 3793.56 624.055 3793.56 643.431V810.587C3793.52 868.652 3770.41 924.329 3729.31 965.394C3688.21 1006.46 3632.48 1029.56 3574.34 1029.61Z" fill="black"/>
<path d="M14394.6 688.72C14394.7 706.71 14390.6 724.466 14382.7 740.627C14374.8 756.787 14363.2 770.921 14349 781.942L13174.4 1690.49C13170 1693.9 13166.4 1698.29 13163.9 1703.31C13161.4 1708.33 13160.1 1713.86 13160.1 1719.46C13160.1 1725.05 13161.4 1730.58 13163.9 1735.6C13166.4 1740.62 13170 1745.01 13174.4 1748.42L14348.6 2652.44C14363 2663.47 14374.6 2677.65 14382.6 2693.88C14390.5 2710.11 14394.7 2727.95 14394.6 2746.03V2748.14C14394.6 2779.48 14382.2 2809.54 14360 2831.7C14337.8 2853.87 14307.7 2866.33 14276.4 2866.35H14117.6C14020.8 2866.28 13926.8 2834.22 13850.2 2775.18L12893.7 2038.97C12817 1980 12722.9 1948 12626.1 1947.94H12333.5C12236.7 1948 12142.6 1980 12065.8 2038.97L11109.5 2775.18C11032.9 2834.31 10938.7 2866.4 10841.9 2866.42H10683C10651.6 2866.41 10621.6 2853.94 10599.4 2831.78C10577.2 2809.61 10564.7 2779.55 10564.7 2748.22V2746.1C10564.7 2728.02 10568.9 2710.18 10576.8 2693.95C10584.8 2677.73 10596.4 2663.55 10610.7 2652.51L11785 1748.5C11789.4 1745.08 11793 1740.7 11795.5 1735.67C11798 1730.65 11799.2 1725.13 11799.2 1719.53C11799.2 1713.93 11798 1708.4 11795.5 1703.38C11793 1698.36 11789.4 1693.97 11785 1690.56L10610.6 782.015C10591 766.939 10576.6 746.104 10569.5 722.442C10562.3 698.779 10562.8 673.478 10570.8 650.096C10578.8 626.714 10594 606.426 10614.1 592.086C10634.3 577.745 10658.4 570.073 10683.2 570.148H10844.8C10941.5 570.361 11035.4 602.523 11111.8 661.616L12062 1397.01C12138.8 1456.52 12233.2 1488.78 12330.4 1488.7H12629.1C12726.2 1488.76 12820.7 1456.5 12897.5 1397.01L13847.8 662.054C13924.2 602.946 14018.1 570.783 14114.8 570.586H14276.2C14307.6 570.586 14337.7 583.055 14359.9 605.251C14382.2 627.447 14394.6 657.55 14394.6 688.94V688.72Z" fill="black"/>
<path d="M16234.6 0H16077.2V3589.54H16234.6V0Z" fill="black"/>
<path d="M20807 842.378H18738.1C18512 842.398 18295.2 932.109 18135.4 1091.78C17975.5 1251.45 17885.7 1468 17885.7 1693.79V1776.42C17885.8 1888.2 17907.8 1998.88 17950.7 2102.15C17993.5 2205.41 18056.3 2299.24 18135.5 2378.26C18214.6 2457.29 18308.6 2519.97 18412 2562.73C18515.4 2605.49 18626.2 2627.49 18738.1 2627.47H20807.1C20814.6 2627.48 20822 2626.02 20828.9 2623.17C20835.8 2620.32 20842 2616.14 20847.3 2610.87C20852.6 2605.59 20856.8 2599.33 20859.6 2592.44C20862.5 2585.55 20864 2578.16 20863.9 2570.7V2440.95C20863.9 2395.77 20845.9 2352.45 20814 2320.51C20782 2288.56 20738.6 2270.6 20693.4 2270.58H18711.1C18646.2 2270.6 18581.9 2257.85 18521.9 2233.04C18461.9 2208.23 18407.4 2171.87 18361.5 2126.02C18315.6 2080.17 18279.2 2025.73 18254.4 1965.82C18229.6 1905.91 18216.8 1841.7 18216.8 1776.86V1693.14C18216.8 1562.19 18268.9 1436.61 18361.6 1344.02C18454.3 1251.43 18580 1199.41 18711.1 1199.41H20693.4C20738.6 1199.41 20782 1181.47 20814 1149.54C20845.9 1117.6 20863.9 1074.29 20863.9 1029.11V899.144C20864 891.687 20862.5 884.301 20859.6 877.41C20856.8 870.518 20852.6 864.256 20847.3 858.983C20842 853.71 20835.8 849.529 20828.9 846.68C20822 843.831 20814.5 842.369 20807 842.378Z" fill="black"/>
<path d="M23485.1 974.899C23448.8 933.319 23403.9 899.995 23353.5 877.162C23303.2 854.329 23248.5 842.516 23193.3 842.516C23138 842.516 23083.3 854.329 23033 877.162C22982.6 899.995 22937.7 933.319 22901.4 974.899L21726.1 2560.25C21721.4 2566.57 21718.6 2574.07 21717.9 2581.92C21717.3 2589.76 21718.8 2597.63 21722.3 2604.66C21725.9 2611.68 21731.3 2617.59 21738 2621.7C21744.8 2625.82 21752.5 2627.99 21760.4 2627.98H21978.5C22014 2628.05 22049.1 2619.77 22080.9 2603.81C22112.7 2587.84 22140.2 2564.64 22161.3 2536.07L22384.5 2235.14H24002.2L24225.4 2536.07C24246.5 2564.64 24274.1 2587.84 24305.8 2603.81C24337.6 2619.77 24372.7 2628.05 24408.2 2627.98H24626.4C24634.2 2627.97 24641.9 2625.78 24648.6 2621.65C24655.3 2617.53 24660.8 2611.63 24664.3 2604.62C24667.9 2597.6 24669.4 2589.74 24668.7 2581.91C24668.1 2574.08 24665.3 2566.58 24660.6 2560.25L23485.4 974.899H23485.1ZM22629.3 1904.19L23170.6 1174.78C23173.2 1171.22 23176.6 1168.32 23180.6 1166.33C23184.5 1164.33 23188.9 1163.29 23193.3 1163.29C23197.7 1163.29 23202.1 1164.33 23206.1 1166.33C23210 1168.32 23213.4 1171.22 23216 1174.78L23757.3 1904.19H22629.6H22629.3Z" fill="black"/>
<path d="M27943.9 1913.55H28097C28387.8 1913.55 28635.6 1716.29 28645.6 1425.89C28656.6 1121.09 28412.3 842.378 28109.8 842.378H25724.8C25717.3 842.369 25709.9 843.831 25703 846.68C25696.1 849.529 25689.9 853.71 25684.6 858.983C25679.3 864.256 25675.1 870.518 25672.3 877.41C25669.4 884.301 25668 891.687 25668 899.144V2570.85C25668 2578.31 25669.4 2585.69 25672.3 2592.59C25675.1 2599.48 25679.3 2605.74 25684.6 2611.01C25689.9 2616.28 25696.1 2620.47 25703 2623.31C25709.9 2626.16 25717.3 2627.63 25724.8 2627.62H25828.5C25850.9 2627.63 25873.1 2623.23 25893.7 2614.68C25914.4 2606.14 25933.2 2593.6 25949 2577.8C25964.8 2562 25977.4 2543.24 25985.9 2522.59C25994.5 2501.94 25998.9 2479.81 25998.9 2457.47V1941.9C25998.9 1934.37 26001.9 1927.15 26007.2 1921.82C26012.6 1916.5 26019.8 1913.5 26027.3 1913.48H27241.6C27316.9 1913.47 27390.1 1938.45 27449.7 1984.49L28194.5 2557.77C28254.2 2603.65 28327.3 2628.54 28402.6 2628.57H28553.4C28566.7 2628.57 28579.9 2625.72 28592 2620.2C28604.1 2614.69 28614.9 2606.64 28623.7 2596.6C28632.4 2586.56 28638.9 2574.76 28642.7 2562C28646.5 2549.24 28647.5 2535.82 28645.7 2522.63C28641.6 2497.28 28627.7 2474.54 28607 2459.29L27934.6 1941.6C27932.1 1939.61 27930.2 1936.88 27929.3 1933.79C27928.3 1930.69 27928.4 1927.39 27929.4 1924.32C27930.4 1921.25 27932.4 1918.57 27935 1916.65C27937.5 1914.72 27940.7 1913.64 27943.9 1913.55ZM25999 1584.79V1199.41H28129.3C28179.3 1205.11 28225.7 1228.61 28259.9 1265.61C28294.1 1302.61 28313.8 1350.66 28315.5 1400.98C28316.2 1424.87 28312.1 1448.66 28303.4 1470.93C28294.8 1493.21 28281.7 1513.53 28265 1530.67C28248.4 1547.82 28228.4 1561.45 28206.4 1570.76C28184.3 1580.07 28160.6 1584.86 28136.7 1584.86H25998.6L25999 1584.79Z" fill="black"/>
<path d="M32208.4 1584.86H30276.2C30252.7 1584.88 30229.5 1580.28 30207.8 1571.31C30186.1 1562.34 30166.4 1549.19 30149.8 1532.61C30133.2 1516.03 30120 1496.33 30111 1474.66C30102 1452.99 30097.4 1429.76 30097.4 1406.31C30096.5 1355.88 30114.2 1306.86 30147.2 1268.67C30180.2 1230.48 30226.1 1205.82 30276.2 1199.41H32545.9C32591.1 1199.41 32634.5 1181.47 32666.4 1149.54C32698.4 1117.6 32716.4 1074.29 32716.4 1029.11V899.144C32716.4 884.095 32710.4 869.668 32699.8 859.026C32689.1 848.385 32674.7 842.398 32659.6 842.378H30302.8C30006.7 842.378 29766.6 1110.5 29766.6 1406.38C29767.2 1475.24 29781.7 1543.27 29809.2 1606.41C29836.7 1669.55 29876.7 1726.5 29926.8 1773.84C29976.8 1821.19 30035.9 1857.97 30100.5 1881.97C30165.2 1905.98 30234 1916.72 30302.8 1913.55H32235.5C32259.3 1913.07 32282.9 1917.33 32305 1926.09C32327.1 1934.84 32347.3 1947.92 32364.2 1964.54C32381.2 1981.16 32394.7 2001.01 32403.9 2022.9C32413.1 2044.8 32417.9 2068.31 32417.9 2092.07C32417.9 2115.82 32413.1 2139.33 32403.9 2161.23C32394.7 2183.13 32381.2 2202.97 32364.2 2219.59C32347.3 2236.22 32327.1 2249.29 32305 2258.05C32282.9 2266.8 32259.3 2271.06 32235.5 2270.58H29965.6C29920.4 2270.56 29877 2288.48 29845 2320.38C29813 2352.29 29795 2395.58 29795 2440.73V2570.85C29795 2578.31 29796.4 2585.69 29799.3 2592.58C29802.1 2599.48 29806.3 2605.74 29811.6 2611.01C29816.9 2616.28 29823.2 2620.46 29830.1 2623.31C29837 2626.16 29844.4 2627.63 29851.8 2627.62H32208.4C32350.6 2627.64 32487 2571.22 32587.6 2470.78C32688.2 2370.34 32744.8 2234.1 32744.8 2092.03C32744.2 2023.16 32729.7 1955.12 32702.2 1891.97C32674.6 1828.83 32634.6 1771.88 32584.5 1724.54C32534.5 1677.19 32475.3 1640.42 32410.7 1616.42C32346.1 1592.42 32277.2 1581.69 32208.4 1584.86Z" fill="black"/>
<path d="M8854.07 1552.42C8906.23 1449.57 8931.22 1335.12 8926.64 1219.92C8922.07 1104.72 8888.08 992.605 8827.92 894.214C8767.76 795.822 8683.42 714.423 8582.91 657.744C8482.39 601.066 8369.04 570.991 8253.61 570.374H5410.14V2866.43H8615.03C8773.23 2864.71 8925.9 2808.01 9046.8 2706.09C9167.7 2604.16 9249.3 2463.36 9277.56 2307.88C9305.83 2152.4 9279 1991.94 9201.69 1854.06C9124.39 1716.19 9001.42 1609.51 8853.92 1552.34L8854.07 1552.42ZM5830.81 994.912H8253.61C8321.51 994.912 8386.63 1021.85 8434.64 1069.81C8482.65 1117.76 8509.62 1182.8 8509.62 1250.61C8509.62 1318.43 8482.65 1383.47 8434.64 1431.42C8386.63 1479.38 8321.51 1506.32 8253.61 1506.32H5830.81V994.912ZM8615.17 2441.89H5830.81V1930.49H8615.17C8683.07 1930.49 8748.19 1957.43 8796.2 2005.38C8844.21 2053.34 8871.18 2118.37 8871.18 2186.19C8871.18 2254.01 8844.21 2319.05 8796.2 2367C8748.19 2414.95 8683.07 2441.89 8615.17 2441.89Z" fill="black"/>
<path d="M6255.36 5943.87C6182.33 5912.22 6118.74 5862.21 6070.82 5798.71L6116.97 5752.61C6157.42 5810.5 6213.43 5855.79 6278.55 5883.23C6349.77 5916.64 6427.5 5933.92 6506.18 5933.86C6596.1 5938.54 6685.5 5917.51 6763.87 5873.23C6792.98 5856.63 6817.1 5832.55 6833.73 5803.48C6850.37 5774.42 6858.9 5741.44 6858.45 5707.97C6860.01 5668.93 6848.36 5630.51 6825.39 5598.89C6795.65 5564.95 6757.44 5539.49 6714.65 5525.11C6642.4 5499.09 6567.99 5479.54 6492.28 5466.66C6412.34 5452.68 6334.17 5429.99 6259.17 5399.01C6210.3 5379.53 6167.63 5347.19 6135.7 5305.42C6108.82 5264.42 6095.37 5216.09 6097.22 5167.12C6096.48 5113.9 6114.16 5062.06 6147.25 5020.35C6184.44 4975.1 6233.46 4941.03 6288.86 4921.94C6356.71 4897.75 6428.38 4886.04 6500.4 4887.38C6574.03 4886.59 6647.12 4899.89 6715.74 4926.54C6779.29 4951.28 6836.15 4990.54 6881.78 5041.17L6838.7 5088.73C6798.36 5043.7 6748.07 5008.68 6691.82 4986.45C6630.41 4961.94 6564.78 4949.68 6498.65 4950.36C6413.37 4946.25 6328.73 4966.8 6254.85 5009.54C6226.95 5025.29 6203.75 5048.19 6187.65 5075.88C6171.56 5103.56 6163.14 5135.03 6163.27 5167.05C6161.78 5205.25 6173.14 5242.85 6195.53 5273.86C6223.95 5306.84 6260.59 5331.74 6301.74 5346.04C6368.18 5370.84 6436.73 5389.62 6506.55 5402.15C6592.29 5417.5 6676.32 5441.21 6757.44 5472.94C6808.31 5491.75 6853.03 5524.18 6886.68 5566.68C6914.13 5608.02 6927.85 5656.94 6925.89 5706.51C6926.96 5748.8 6917.12 5790.66 6897.32 5828.06C6877.51 5865.45 6848.41 5897.14 6812.81 5920.06C6720.81 5976.89 6613.61 6004.24 6505.59 5998.45C6419 5998.8 6333.38 5980.18 6254.78 5943.87H6255.36Z" fill="black"/>
<path d="M7679.7 5944.67C7616.7 5909.51 7565.16 5856.99 7531.22 5793.37C7494.91 5724.5 7476.64 5647.57 7478.11 5569.74V4905.87H7545.85V5569.74C7544.44 5635.79 7559.76 5701.13 7590.39 5759.69C7618.94 5813.28 7662.04 5857.74 7714.74 5887.98C7771.01 5918.24 7833.92 5934.08 7897.82 5934.08C7961.73 5934.08 8024.64 5918.24 8080.91 5887.98C8133.59 5857.72 8176.68 5813.26 8205.26 5759.69C8235.88 5701.13 8251.2 5635.79 8249.8 5569.74V4905.87H8317.53V5569.74C8319.01 5647.57 8300.74 5724.5 8264.43 5793.37C8230.45 5856.96 8178.91 5909.47 8115.95 5944.67C8048.56 5980.01 7973.6 5998.47 7897.49 5998.47C7821.39 5998.47 7746.43 5980.01 7679.05 5944.67H7679.7Z" fill="black"/>
<path d="M9600.75 4950.51C9653.21 4978.79 9696.07 5022.03 9723.85 5074.71C9752.82 5131.18 9767.37 5193.92 9766.2 5257.36C9767.35 5320.11 9752.79 5382.16 9723.85 5437.88C9695.81 5490.5 9652.69 5533.56 9600.01 5561.57C9540.74 5592.48 9474.56 5607.81 9407.71 5606.13H9018.43V5981.07H8950.7V4905.87H9407.64C9474.76 4904.05 9541.23 4919.46 9600.75 4950.51ZM9622.69 5463.74C9672.33 5405.99 9699.63 5332.38 9699.63 5256.26C9699.63 5180.14 9672.33 5106.53 9622.69 5048.78C9593.82 5021.6 9559.68 5000.63 9522.38 4987.16C9485.08 4973.69 9445.4 4968 9405.81 4970.46H9018.14V5542.06H9405.81C9445.4 5544.52 9485.08 5538.84 9522.38 5525.36C9559.69 5511.89 9593.83 5490.92 9622.69 5463.74Z" fill="black"/>
<path d="M10379.8 5916.98H11070.6V5981.57H10312V4905.87H11050.8V4970.45H10380V5405.29H11018.5V5469.87H10380V5916.98H10379.8Z" fill="black"/>
<path d="M12032.2 5568.21H11719.9V5981.57H11651.9V4905.87H12118C12181.8 4904.48 12244.9 4918.73 12301.9 4947.37C12353.2 4973.58 12395.7 5014.21 12424.2 5064.26C12453.7 5117.32 12468.6 5177.24 12467.4 5237.92C12468.6 5298.34 12453.7 5358.01 12424.2 5410.77C12395.7 5460.26 12353.5 5500.53 12302.7 5526.79C12246.1 5555.39 12183.3 5569.61 12119.9 5568.21L12501.4 5981.57H12413.6L12032.2 5568.21ZM12323.8 5044.24C12267.5 4994.03 12193.7 4968.06 12118.3 4971.99H11719.9V5503.7H12118.3C12193.7 5507.63 12267.5 5481.66 12323.8 5431.45C12372.7 5378.83 12399.9 5309.67 12399.9 5237.84C12399.9 5166.02 12372.7 5096.85 12323.8 5044.24Z" fill="black"/>
<path d="M13253.1 5929.34C13170.2 5883.55 13102.2 5815.13 13056.9 5732.08C13010.8 5642.99 12986.8 5544.19 12986.8 5443.94C12986.8 5343.69 13010.8 5244.89 13056.9 5155.8C13102 5072.9 13169.7 5004.5 13252.2 4958.55C13339.5 4910.47 13437.9 4886.09 13537.5 4887.83C13608.9 4887.35 13679.5 4901.27 13745.4 4928.73C13811.2 4956.2 13870.8 4996.66 13920.6 5047.68L13874.4 5092.17C13830.6 5048.02 13778.6 5012.81 13721.3 4988.5C13663.7 4964.11 13601.7 4951.69 13539.1 4951.97C13451 4950.42 13364 4971.9 13286.8 5014.29C13214.1 5054.55 13154.5 5114.83 13115.2 5187.95C13075.2 5267.29 13054.5 5354.85 13054.5 5443.65C13054.5 5532.45 13075.2 5620.01 13115.2 5699.35C13154.5 5772.45 13214.1 5832.73 13286.8 5873.01C13364 5915.35 13451 5936.8 13539.1 5935.25C13667.4 5935.55 13790.6 5885.3 13882.1 5795.42L13926.7 5839.91C13877.3 5891.61 13817.4 5932.23 13751.1 5959.07C13683.7 5986.31 13611.7 6000.14 13539 5999.76C13439.1 6001.46 13340.4 5977.11 13252.8 5929.12L13253.1 5929.34Z" fill="black"/>
<path d="M15337.2 5981.57L15215.7 5711.25H14560.3L14438.8 5981.57H14364.8L14847.5 4905.87H14928L15410.7 5981.57H15337.6H15337.2ZM14888 4978.41L14588.1 5645.28H15187.9L14888 4978.41Z" fill="black"/>
<path d="M16323.9 5568.21H16011.6V5981.57H15943.9V4905.87H16410C16473.8 4904.48 16536.9 4918.73 16593.9 4947.37C16645.2 4973.58 16687.7 5014.21 16716.2 5064.26C16745.7 5117.32 16760.6 5177.24 16759.4 5237.92C16760.6 5298.34 16745.7 5358.01 16716.2 5410.77C16687.7 5460.26 16645.5 5500.53 16594.7 5526.79C16538.1 5555.39 16475.3 5569.61 16411.8 5568.21L16793.4 5981.57H16705.6L16324 5568.21H16323.9ZM16615.5 5044.24C16559.2 4994.03 16485.4 4968.06 16410 4971.99H16011.6V5503.7H16410C16485.4 5507.63 16559.2 5481.66 16615.5 5431.45C16664.4 5378.83 16691.6 5309.67 16691.6 5237.84C16691.6 5166.02 16664.4 5096.85 16615.5 5044.24Z" fill="black"/>
<path d="M18867.3 5531.31C18908.5 5587.42 18927.1 5656.93 18919.4 5726.08C18911.7 5795.23 18878.3 5858.98 18825.8 5904.7C18749.6 5959.92 18656.5 5987.07 18562.5 5981.56H18093.3V4905.86H18562.5C18646.7 4901.76 18729.4 4928.84 18794.9 4981.91C18823.7 5006.89 18846.6 5038.02 18861.8 5073.01C18877 5108 18884.1 5145.95 18882.7 5184.06C18883.4 5238.5 18867.9 5291.92 18838.1 5337.49C18809.8 5381.35 18767.5 5414.37 18718.1 5431.15C18776.9 5448.43 18828.9 5483.28 18867.3 5531.02V5531.31ZM18748.1 5028.82C18695.4 4987.55 18629.5 4966.79 18562.6 4970.37H18161.1V5400.68H18562.5C18629.6 5404.78 18696 5384.61 18749.5 5343.84C18771.8 5324.49 18789.4 5300.32 18801 5273.15C18812.6 5245.99 18817.9 5216.55 18816.4 5187.06C18817.7 5157.22 18812.3 5127.46 18800.4 5100.03C18788.5 5072.61 18770.6 5048.23 18747.9 5028.74L18748.1 5028.82ZM18777.3 5857.07C18801.3 5836.61 18820.6 5811.17 18833.7 5782.52C18846.9 5753.86 18853.6 5722.69 18853.5 5691.17C18853.3 5659.65 18846.3 5628.53 18832.9 5600C18819.5 5571.47 18800 5546.21 18775.8 5525.97C18714.7 5482.65 18640.7 5461.26 18565.9 5465.26H18161.2V5917.05H18565.9C18641.1 5921.52 18715.7 5900.4 18777.4 5857.14L18777.3 5857.07Z" fill="black"/>
<path d="M19497.6 4905.87H19565.3V5915.45H20182.3V5981.2H19497.6V4905.87H19497.6Z" fill="black"/>
<path d="M20860.5 5929.33C20778.8 5883.11 20711.8 5814.72 20667.4 5732.08C20621.9 5642.83 20598.2 5544.09 20598.2 5443.94C20598.2 5343.78 20621.9 5245.05 20667.4 5155.8C20711.8 5073.16 20778.8 5004.77 20860.5 4958.54C20946.8 4912.16 21043.3 4887.88 21141.3 4887.88C21239.3 4887.88 21335.7 4912.16 21422 4958.54C21503.7 5004.77 21570.7 5073.16 21615.1 5155.8C21660.6 5245.05 21684.3 5343.78 21684.3 5443.94C21684.3 5544.09 21660.6 5642.83 21615.1 5732.08C21570.7 5814.72 21503.7 5883.11 21422 5929.33C21335.7 5975.72 21239.3 6000 21141.3 6000C21043.3 6000 20946.8 5975.72 20860.5 5929.33ZM21386.7 5873.3C21458.5 5832.3 21517.2 5771.81 21556 5698.84C21595.9 5619.73 21616.7 5532.36 21616.7 5443.76C21616.7 5355.15 21595.9 5267.78 21556 5188.67C21517.2 5115.71 21458.5 5055.23 21386.7 5014.29C21311.4 4973.41 21227 4952 21141.3 4952C21055.6 4952 20971.2 4973.41 20895.9 5014.29C20824.1 5055.23 20765.4 5115.71 20726.6 5188.67C20686.7 5267.78 20665.8 5355.15 20665.8 5443.76C20665.8 5532.36 20686.7 5619.73 20726.6 5698.84C20765.4 5771.81 20824.1 5832.3 20895.9 5873.3C20971.2 5914.13 21055.6 5935.51 21141.3 5935.51C21227 5935.51 21311.4 5914.13 21386.7 5873.3Z" fill="black"/>
<path d="M23039.1 4905.87H23105V5981.57H23034.1L22324.6 5008.88V5981.57H22257.3V4905.87H22331.2L23039 5875.49L23039.1 4905.87Z" fill="black"/>
<path d="M24394.5 4974.33C24475.8 5018.25 24543 5084.32 24588.3 5164.86C24633.8 5250.81 24657.5 5346.55 24657.5 5443.76C24657.5 5540.97 24633.8 5636.71 24588.3 5722.66C24543.1 5803.32 24475.9 5869.52 24394.5 5913.56C24307 5960.23 24209 5983.77 24109.8 5981.94H23749.5V4905.87H24109.6C24208.7 4904.06 24306.7 4927.63 24394.2 4974.33H24394.5ZM24359.1 5855.62C24430.5 5817.04 24489.5 5758.93 24529 5688.1C24569.1 5612.84 24590 5528.9 24589.8 5443.67C24589.7 5358.44 24568.6 5274.56 24528.3 5199.42C24488.2 5128.68 24429.1 5070.63 24357.5 5031.9C24281.4 4991.14 24196.1 4970.51 24109.8 4971.99H23817.2V5915.46H24109.8C24196.6 5917.05 24282.4 5896.43 24359 5855.55L24359.1 5855.62Z" fill="black"/>
<path d="M25231 4905.87H25298.7V5981.57H25231V4905.87Z" fill="black"/>
<path d="M26010.4 5916.98H26701.2V5981.57H25942.9V4905.87H26681.7V4970.45H26010.8V5405.29H26649.3V5469.87H26010.8V5916.98H26010.4Z" fill="black"/>
</svg>
