<?xml version="1.0" encoding="utf-8"?>
<!-- Generator: Adobe Illustrator 28.3.0, SVG Export Plug-In . SVG Version: 6.00 Build 0)  -->
<svg version="1.1" id="Layer_1" xmlns="http://www.w3.org/2000/svg" xmlns:xlink="http://www.w3.org/1999/xlink" x="0px" y="0px"
	 viewBox="0 0 176 176" style="enable-background:new 0 0 176 176;" xml:space="preserve">
<style type="text/css">
	.st0{fill:#FFFFFF;}
	.st1{fill:#010101;}
</style>
<g id="c">
	<circle class="st0" cx="88" cy="88" r="88"/>
	<path class="st1" d="M54.4,62.4H27.6c-1.2,0-2.1,1.3-2.1,2.4c0,1.2,0.9,2.1,2.1,2.1h22.8c3.5,0,6.3,2.5,6.3,6s-2.8,6.3-6.3,6.3
		H22.6c-0.4,0-0.7-0.3-0.7-0.7V77c0-1.1,0.9-2,2-2h26.8c1.2,0,2.1-0.9,2.1-2.1s-0.9-2.1-2.1-2.1H27.9c-3.5,0-6.3-2.5-6.3-6
		s2.8-6.7,6.3-6.7h27.8c0.4,0,0.7,0.3,0.7,0.7v1.5C56.5,61.5,55.6,62.4,54.4,62.4L54.4,62.4z"/>
	<path class="st1" d="M151.3,79.5c-0.9,0-1.8-0.3-2.6-0.9l-8.8-6.8c-0.7-0.5-1.5-0.8-2.4-0.8h-2.7c-0.8,0-1.7,0.3-2.4,0.8l-8.8,6.8
		c-0.7,0.6-1.6,0.9-2.6,0.9h-1.5c-0.7,0-1.2-0.6-1.2-1.2c0-0.4,0.2-0.8,0.5-1l10.8-8.3v-0.3L119,60.3c-0.3-0.2-0.5-0.6-0.5-1
		c0-0.7,0.6-1.2,1.2-1.2h1.5c0.9,0,1.8,0.3,2.5,0.9l8.7,6.8c0.7,0.5,1.5,0.8,2.4,0.8h2.7c0.9,0,1.7-0.3,2.4-0.8l8.7-6.8
		c0.7-0.6,1.6-0.9,2.5-0.9h1.5c0.3,0,0.6,0.1,0.9,0.4c0.2,0.2,0.4,0.5,0.4,0.9s-0.2,0.7-0.5,1l-10.8,8.4l-0.1,0.4l0.1-0.1l10.8,8.3
		c0.3,0.2,0.5,0.6,0.5,1c0,0.7-0.6,1.3-1.2,1.3L151.3,79.5L151.3,79.5z"/>
	<path class="st1" d="M153.8,59.3c0,0.3-0.2,0.7-0.4,0.9l-10.8,8.4c-0.2,0.1-0.2,0.4,0,0.5l10.8,8.3c0.3,0.2,0.4,0.5,0.4,0.9l0,0
		c0,0.6-0.5,1.1-1.1,1.1h-1.5c-0.9,0-1.8-0.3-2.5-0.8l-8.8-6.8c-0.7-0.5-1.6-0.8-2.5-0.8h-2.7c-0.9,0-1.8,0.3-2.5,0.8l-8.8,6.8
		c-0.7,0.5-1.6,0.8-2.5,0.8h-1.5c-0.6,0-1.1-0.5-1.1-1.1l0,0c0-0.3,0.2-0.7,0.4-0.9l10.8-8.3c0.2-0.1,0.2-0.4,0-0.5l-10.8-8.4
		c-0.3-0.2-0.4-0.5-0.4-0.9c0-0.6,0.5-1.1,1.1-1.1s1.1,0,1.5,0c0.9,0,1.7,0.3,2.5,0.8l8.7,6.8c0.7,0.5,1.6,0.8,2.5,0.8h2.7
		c0.9,0,1.8-0.3,2.5-0.8l8.7-6.8c0.7-0.5,1.6-0.8,2.5-0.8c0.4,0,0.9,0,1.5,0C153.4,58.2,153.8,58.7,153.8,59.3L153.8,59.3z"/>
	<rect x="19.7" y="89.7" class="st1" width="137.1" height="1.4"/>
	<path class="st1" d="M46.1,101.5H27c-4.3,0-7.8,3.5-7.8,7.8v0.8c0,4.3,3.5,7.8,7.8,7.8h19c0.3,0,0.5-0.2,0.5-0.5v-1.2
		c0-0.9-0.7-1.6-1.6-1.6H26.8c-2.5,0-4.5-2-4.5-4.5v-0.8c0-2.5,2-4.5,4.5-4.5H45c0.9,0,1.6-0.7,1.6-1.6V102
		C46.6,101.8,46.3,101.5,46.1,101.5z"/>
	<path class="st1" d="M70.6,102.8c-0.6-0.8-1.7-1.2-2.7-1.2s-2.1,0.5-2.7,1.2l-10.8,14.6c-0.2,0.3,0,0.6,0.3,0.6h2
		c0.7,0,1.3-0.3,1.7-0.8l2.1-2.8h14.9l2.1,2.8c0.4,0.5,1,0.8,1.7,0.8h2c0.3,0,0.5-0.4,0.3-0.6L70.6,102.8L70.6,102.8z M62.8,111.3
		l5-6.7c0.1-0.1,0.3-0.1,0.4,0l5,6.7C73.1,111.3,62.8,111.3,62.8,111.3z"/>
	<path class="st1" d="M111.6,111.4h1.4c2.7,0,4.9-1.8,5-4.5c0.1-2.8-2.1-5.4-4.9-5.4H91.2c-0.3,0-0.5,0.2-0.5,0.5v15.4
		c0,0.3,0.2,0.5,0.5,0.5h1c0.9,0,1.6-0.7,1.6-1.6v-4.7c0-0.1,0.1-0.3,0.3-0.3h11.2c0.7,0,1.4,0.2,1.9,0.7l6.8,5.3
		c0.5,0.4,1.2,0.7,1.9,0.7h1.4c0.5,0,0.9-0.4,0.8-1c0-0.2-0.2-0.4-0.4-0.6l-6.2-4.8C111.4,111.6,111.5,111.4,111.6,111.4z
		 M93.7,108.4v-3.5h19.6c0.9,0,1.7,1,1.7,1.9s-0.7,1.7-1.6,1.7L93.7,108.4L93.7,108.4z"/>
	<path class="st1" d="M150.8,108.4H133c-0.9,0-1.6-0.7-1.6-1.6s0.7-1.9,1.6-1.9h20.8c0.9,0,1.6-0.7,1.6-1.6v-1.2
		c0-0.3-0.2-0.5-0.5-0.5h-21.7c-2.7,0-4.9,2.5-4.9,5.2s2.2,4.7,4.9,4.7H151c0.9,0,1.6,0.7,1.6,1.6s-0.7,1.6-1.6,1.6h-20.8
		c-0.9,0-1.6,0.7-1.6,1.6v1.2c0,0.3,0.2,0.5,0.5,0.5h21.6c2.7,0,4.9-2.2,4.9-4.9S153.5,108.4,150.8,108.4L150.8,108.4z"/>
	<path class="st1" d="M102.9,67.2c0.4-0.8,0.7-1.8,0.7-2.8c0-3.5-2.8-6.3-6.2-6.3H71.3v21.1h29.4c3.4,0,6.2-2.8,6.2-6.3
		C106.9,70.4,105.3,68.1,102.9,67.2L102.9,67.2z M75.2,62.1h22.3c1.3,0,2.3,1.1,2.3,2.4s-1,2.4-2.3,2.4H75.2V62.1z M100.8,75.4H75.2
		v-4.7h25.6c1.3,0,2.3,1.1,2.3,2.4C103.1,74.3,102,75.4,100.8,75.4z"/>
</g>
</svg>
