<svg xmlns="http://www.w3.org/2000/svg" width="18.863" height="22.447" viewBox="0 0 18.863 22.447">
  <path id="apple-13" d="M19.771,43.862a4.678,4.678,0,0,1,2.506-4.25,5.384,5.384,0,0,0-4.245-2.235c-1.779-.14-3.724,1.037-4.435,1.037-.752,0-2.476-.987-3.829-.987C6.972,37.473,4,39.658,4,44.1a12.491,12.491,0,0,0,.722,4.069c.641,1.839,2.957,6.35,5.372,6.274,1.263-.03,2.155-.9,3.8-.9,1.594,0,2.421.9,3.829.9,2.436-.035,4.53-4.134,5.142-5.979a4.968,4.968,0,0,1-3.092-4.606Zm-2.836-8.229A4.72,4.72,0,0,0,18.137,32a5.314,5.314,0,0,0-3.4,1.749,4.794,4.794,0,0,0-1.283,3.6A4.209,4.209,0,0,0,16.935,35.633Z" transform="translate(-4 -32)"/>
</svg>
