<svg xmlns="http://www.w3.org/2000/svg" xmlns:xlink="http://www.w3.org/1999/xlink" width="22.445" height="22.445" viewBox="0 0 22.445 22.445">
  <g id="facebook-2020-2-1" transform="translate(-17062.857 -17567.158)">
    <path id="Path_361" data-name="Path 361" d="M17816.09,18309.2a11.222,11.222,0,1,1-11.223,11.223A11.221,11.221,0,0,1,17816.09,18309.2Z" transform="translate(-742.01 -742.043)" fill-rule="evenodd" fill="#ffffff" stroke="none"/>
    <path id="Path_362" data-name="Path 362" d="M19911.527,19739.02v-8.668h2.445l.324-3.053h-2.77l.006-1.525c0-.795.076-1.223,1.219-1.223h1.527v-3.051h-2.441c-2.937,0-3.971,1.479-3.971,3.969v1.83h-1.83v3.055h1.83v8.543a11.19,11.19,0,0,0,3.662.123Z" transform="translate(-2835.993 -2149.511)" fill="#000000"/>
  </g>
</svg>
