<svg xmlns="http://www.w3.org/2000/svg" width="25.283" height="25.283" viewBox="0 0 25.283 25.283">
  <g id="instagram-svgrepo-com" transform="translate(-29 -29)">
    <path id="Path_473" data-name="Path 473" d="M41.642,53.283c-2.5,0-4.293,0-5.693-.137a6.585,6.585,0,0,1-2.977-.836,6.35,6.35,0,0,1-2-2,6.585,6.585,0,0,1-.836-2.977C30,45.934,30,44.138,30,41.642s0-4.293.137-5.693a6.585,6.585,0,0,1,.836-2.977,6.35,6.35,0,0,1,2-2,6.585,6.585,0,0,1,2.977-.836c1.4-.136,3.2-.137,5.693-.137s4.293,0,5.693.137a6.585,6.585,0,0,1,2.977.836,6.35,6.35,0,0,1,2,2,6.585,6.585,0,0,1,.836,2.977c.136,1.4.137,3.2.137,5.693s0,4.293-.137,5.693a6.585,6.585,0,0,1-.836,2.977,6.35,6.35,0,0,1-2,2,6.585,6.585,0,0,1-2.977.836C45.934,53.282,44.138,53.283,41.642,53.283Z" fill="none" stroke="currentColor" stroke-width="2"/>
    <circle id="Ellipse_34" data-name="Ellipse 34" cx="5.101" cy="5.101" r="5.101" transform="translate(36.492 36.492)" fill="none" stroke="currentColor" stroke-width="2"/>
    <circle id="Ellipse_35" data-name="Ellipse 35" cx="1.855" cy="1.855" r="1.855" transform="translate(46.694 32.782)" fill="currentColor"/>
  </g>
</svg>
