<svg xmlns="http://www.w3.org/2000/svg" width="23.476" height="23.476" viewBox="0 0 23.476 23.476">
  <g id="reddit-svgrepo-com" transform="translate(-2 -2)">
    <path id="Path_10199" data-name="Path 10199" d="M13.738,2A11.738,11.738,0,1,0,25.476,13.738,11.749,11.749,0,0,0,13.738,2Z" fill="currentColor"/>
    <path id="Path_10200" data-name="Path 10200" d="M17.916,8.6a1.324,1.324,0,0,0-.016.207A1.258,1.258,0,1,0,19.157,7.52a1.236,1.236,0,0,0-.812.3L15.079,7,13.9,11.834a8.133,8.133,0,0,0-4.048,1.328,1.652,1.652,0,0,0-1.174-.491A1.7,1.7,0,0,0,7,14.387a1.722,1.722,0,0,0,.9,1.52,3.38,3.38,0,0,0-.058.626c0,2.607,3,4.721,6.707,4.721s6.707-2.113,6.707-4.721a3.376,3.376,0,0,0-.058-.626,1.722,1.722,0,0,0,.9-1.52,1.7,1.7,0,0,0-1.677-1.717,1.652,1.652,0,0,0-1.174.491,8.267,8.267,0,0,0-4.473-1.347l.922-3.774Zm-6.3,8.361a1.288,1.288,0,1,0-1.258-1.287A1.273,1.273,0,0,0,11.611,16.962Zm5.869,0a1.288,1.288,0,1,0-1.258-1.287A1.273,1.273,0,0,0,17.48,16.962Zm-5.636,1.36a.413.413,0,0,0-.581.119.436.436,0,0,0,.116.6,5.837,5.837,0,0,0,6.334,0,.435.435,0,0,0,.116-.6.413.413,0,0,0-.581-.119,4.824,4.824,0,0,1-2.7.79,5.124,5.124,0,0,1-1.677-.278A4.363,4.363,0,0,1,11.844,18.321Z" transform="translate(-0.808 -0.808)" fill="currentColor" fill-rule="evenodd"/>
  </g>
</svg>
