<svg xmlns="http://www.w3.org/2000/svg" width="24.925" height="23.283" viewBox="0 0 24.925 23.283">
  <path id="snapchat-svgrepo-com" d="M13.683,1.994h.082a6.637,6.637,0,0,1,6.06,3.927l.017.042a12.194,12.194,0,0,1,.436,3.27,12.576,12.576,0,0,1-.134,1.833L20.152,11l0,.062c-.012.187-.022.358-.031.529a.793.793,0,0,0,.379.095h.038a2.926,2.926,0,0,0,1.089-.32l-.016.007a1.022,1.022,0,0,1,.46-.108h.043a1.408,1.408,0,0,1,.517.1l-.01,0a.99.99,0,0,1,.762.866v0q.023.7-1.26,1.214c-.092.03-.217.078-.357.124-.467.14-1.183.374-1.385.841a1.058,1.058,0,0,0-.047.316,1.083,1.083,0,0,0,.174.59l0,0,.016.016a7.362,7.362,0,0,0,4.926,4.158l.051.011a.519.519,0,0,1,.436.512v.017h0a.626.626,0,0,1-.048.238l0,0c-.249.591-1.322,1.027-3.267,1.32a2.691,2.691,0,0,0-.168.575l0,.017a4.289,4.289,0,0,1-.147.6l.008-.03a.546.546,0,0,1-.53.422l-.048,0H21.7a3.306,3.306,0,0,1-.581-.081l.022,0a6.118,6.118,0,0,0-1.318-.14h-.072a5.066,5.066,0,0,0-.911.082l.031,0a4.662,4.662,0,0,0-1.8.924l.007-.006a5.625,5.625,0,0,1-3.41,1.337h-.012c-.062,0-.124-.016-.187-.016h-.155a5.511,5.511,0,0,1-3.413-1.344l.007.006a4.591,4.591,0,0,0-1.741-.911L8.14,23a6.555,6.555,0,0,0-.961-.076h0a6.545,6.545,0,0,0-1.365.163l.044-.008a2.869,2.869,0,0,1-.554.076H5.3l-.043,0a.58.58,0,0,1-.561-.434v0c-.063-.2-.093-.4-.14-.589a2.706,2.706,0,0,0-.18-.61l.007.018c-1.992-.23-3.064-.667-3.312-1.273a.615.615,0,0,1-.057-.232v-.021a.515.515,0,0,1,.434-.509h0A7.361,7.361,0,0,0,6.4,15.376l.018-.047.017-.03a1.025,1.025,0,0,0,.176-.578,1.048,1.048,0,0,0-.054-.332l0,.007c-.2-.451-.918-.683-1.384-.84a2.264,2.264,0,0,1-.374-.13l.015.006c-1.15-.452-1.306-.966-1.243-1.322a1.23,1.23,0,0,1,1.16-.825l.057,0h0a1.042,1.042,0,0,1,.4.08l-.007,0a2.792,2.792,0,0,0,1.14.311h.04a.98.98,0,0,0,.456-.112l0,0-.047-.591a12.126,12.126,0,0,1-.122-1.739A12.5,12.5,0,0,1,7.11,5.864l-.021.088a6.546,6.546,0,0,1,6-3.945h.1l.436-.016h.062Z" transform="translate(-1.007 -1.992)"/>
</svg>
