<svg xmlns="http://www.w3.org/2000/svg" width="21.193" height="24.387" viewBox="0 0 21.193 24.387">
  <path id="tiktok-svgrepo-com_1_" data-name="tiktok-svgrepo-com (1)" d="M14.1,1.024c1.331-.02,2.653-.01,3.974-.02a6.313,6.313,0,0,0,1.78,4.24l0,0A7.133,7.133,0,0,0,24.14,7.06l.023,0v4.1a10.838,10.838,0,0,1-4.336-1.014l.067.028A12.512,12.512,0,0,1,18.2,9.2l.042.028c-.01,2.968.01,5.935-.02,8.893a7.737,7.737,0,0,1-1.388,4.029l.016-.025a7.576,7.576,0,0,1-5.995,3.262h-.011c-.1,0-.218.007-.337.007a7.378,7.378,0,0,1-3.843-1.073l.033.019a7.682,7.682,0,0,1-3.707-5.769l0-.033c-.02-.508-.03-1.017-.01-1.514a7.659,7.659,0,0,1,7.613-6.893,7.743,7.743,0,0,1,1.3.111l-.046-.007c.02,1.5-.041,3.008-.041,4.512a3.426,3.426,0,0,0-1.155-.2,3.489,3.489,0,0,0-3.29,2.327l-.007.024a3.946,3.946,0,0,0-.171,1.16,4.167,4.167,0,0,0,.03.5l0-.02a3.464,3.464,0,0,0,3.417,2.92c.05,0,.1,0,.147,0h-.007a3.414,3.414,0,0,0,2.807-1.622l.008-.015a2.325,2.325,0,0,0,.416-1.066v-.011c.1-1.819.061-3.628.071-5.447.01-4.1-.01-8.182.02-12.267Z" transform="translate(-2.97 -1.004)" fill="currentColor"/>
</svg>
