<svg xmlns="http://www.w3.org/2000/svg" width="30.009" height="24.387" viewBox="0 0 30.009 24.387">
  <g id="_7935ec95c421cee6d86eb22ecd12f847" data-name="7935ec95c421cee6d86eb22ecd12f847" transform="translate(-0.501 -48.363)">
    <path id="Path_474" data-name="Path 474" d="M27.438,54.437q.018.4.018.8c0,8.136-6.193,17.517-17.516,17.517A17.427,17.427,0,0,1,.5,69.984a12.471,12.471,0,0,0,1.469.086,12.353,12.353,0,0,0,7.647-2.636,6.162,6.162,0,0,1-5.752-4.276,6.161,6.161,0,0,0,2.78-.105,6.161,6.161,0,0,1-4.939-6.037c0-.026,0-.052,0-.077a6.136,6.136,0,0,0,2.789.77A6.163,6.163,0,0,1,2.591,49.49,17.479,17.479,0,0,0,15.28,55.923a6.16,6.16,0,0,1,10.491-5.616,12.31,12.31,0,0,0,3.909-1.494,6.172,6.172,0,0,1-2.707,3.406,12.318,12.318,0,0,0,3.537-.969A12.516,12.516,0,0,1,27.438,54.437Z" transform="translate(0 0)" fill="currentColor"/>
  </g>
</svg>
