<svg id="Icons" xmlns="http://www.w3.org/2000/svg" width="37" height="26.208" viewBox="0 0 37 26.208">
  <g id="Color-">
    <path id="Youtube" d="M214.68,385.937l0-10.469,10,5.252Zm21.95-12.284s-.362-2.568-1.471-3.7a5.268,5.268,0,0,0-3.707-1.578C226.275,368,218.508,368,218.508,368h-.015s-7.767,0-12.945.377a5.268,5.268,0,0,0-3.708,1.578c-1.109,1.131-1.47,3.7-1.47,3.7a56.772,56.772,0,0,0-.37,6.031v2.827a56.728,56.728,0,0,0,.37,6.03s.361,2.568,1.47,3.7a6.245,6.245,0,0,0,4.08,1.593c2.96.286,12.58.375,12.58.375s7.775-.012,12.952-.389a5.273,5.273,0,0,0,3.707-1.579c1.109-1.131,1.471-3.7,1.471-3.7a56.731,56.731,0,0,0,.37-6.03v-2.827a56.774,56.774,0,0,0-.37-6.031Z" transform="translate(-200 -368)" fill-rule="evenodd" fill="currentColor"/>
  </g>
</svg>
